<svg xmlns="http://www.w3.org/2000/svg" xmlns:xlink="http://www.w3.org/1999/xlink" id="e132czElxi71" shape-rendering="geometricPrecision" text-rendering="geometricPrecision" viewBox="154 247.31 725.88 535.04"><defs><linearGradient id="e132czElxi73-fill" x1="660.268" y1="345.584" x2="414.947" y2="760.133" spreadMethod="pad" gradientUnits="userSpaceOnUse" gradientTransform="translate(0 0)"><stop id="e132czElxi73-fill-0" offset="0%" stop-color="#704efc"/><stop id="e132czElxi73-fill-1" offset="51.0417%" stop-color="#ff541e"/><stop id="e132czElxi73-fill-2" offset="100%" stop-color="#ff1ec0"/></linearGradient><linearGradient id="e132czElxi711-fill" x1="437.427" y1="188.087" x2="436.197" y2="755.273" spreadMethod="pad" gradientUnits="userSpaceOnUse" gradientTransform="translate(0 0)"><stop id="e132czElxi711-fill-0" offset="0%" stop-color="#405cd3"/><stop id="e132czElxi711-fill-1" offset="100%" stop-color="#4e6de5"/></linearGradient><linearGradient id="e132czElxi764-fill" x1="706.266" y1="589.089" x2="665.504" y2="517.472" spreadMethod="pad" gradientUnits="userSpaceOnUse" gradientTransform="translate(0 0)"><stop id="e132czElxi764-fill-0" offset="0%" stop-color="#e75755"/><stop id="e132czElxi764-fill-1" offset="100%" stop-color="#ff7674"/></linearGradient></defs><g><path d="M658.585,363.032c71.146,41.99,169.408,52.529,200.427,129.097c32.953,81.344,12.966,185.04-47.331,248.814-54.726,57.883-146.695,36.948-226.271,40.568-56.258,2.56-109.331-.298-160.888-22.953-61.098-26.848-123.19-56.343-154.133-115.473-39.228-74.963-67.94-164.926-32.897-241.935c37.311-81.991,121.953-142.795,211.668-150.916c82.092-7.431,138.439,70.902,209.425,112.798Z" clip-rule="evenodd" fill="url(#e132czElxi73-fill)" fill-opacity="0.23" fill-rule="evenodd"/></g><g><path d="M783.545,732.714c-1.55-1.315-3.697-1.591-5.708-1.883-9.13-1.325-19.834-3.695-25.913-9.44-6.316-1.836-12.258-5.755-17.033-10.714-6.107-6.343-12.42-16.731-11.854-26.225-4.849-.905-9.701-1.816-14.553-2.721-10.984-2.053-25.415-.385-37.418,12.909-2.907,3.215-7.062,10.425-.799,18.153c6.933,8.556,62.965,36.303,75.43,45.121c3.992,2.821,14.451,5.75,18.008,0c1.717-2.774-.676-7.037-2.023-10.013l9.664-1.19c3.929-.482,10.974-1.07,13.997-3.625c3.028-2.549,1.222-7.81-1.798-10.372Z" opacity="0.3" fill="#006da2"/><path d="M303.776,618.429c-11.886.02-30.261,5.52-41.053,12.278L161.557,693.664c-10.789,6.758-9.928,12.224,1.956,12.206l261.902-.005c11.872-.022,30.261-5.523,41.053-12.278l101.168-62.96c10.787-6.755,9.911-12.223-1.958-12.203Z" opacity="0.1" fill="#006da2"/><path d="M755.167,721.276c-1.786-3.43-1.718-6.778-12.467-5.074-.804.127-1.587.234-2.358.334-.723-1.661-1.399-3.335-1.843-5.086-.843-3.301-.863-6.746-1.065-10.148-.265-4.455-.849-8.886-1.522-13.296-1.227-8.01-2.781-16.035-5.782-23.564-3.004-7.531-7.544-14.593-13.932-19.584-2.822-2.203-5.95-3.969-9.093-5.68-3.789-2.063-7.611-4.054-11.472-5.977-3.351-1.669-6.773-3.303-10.443-4.049-3.804-.776-5.128,1.499-8.503,4.929-4.915,4.994-2.338,10.46,1.746,13.256c15.591,10.674,33.945,17.018,34.694,17.934.843,1.03,5.398,45.246,6.588,62.732c5.613,3.742,19.812,15.008,29.348,14.449c4.061-.24,7.007-1.457,7.853-3.258.11-4.124-7.419-5.85-7.853-9.143-.434-3.292,7.279-6.515,6.104-8.775Z" opacity="0.5" fill="#006da2"/></g><g transform="translate(-1.401415-4.686969)"><path d="M429.272,255.99l-10.43,1.048c-3.193.321-6.428,1.349-9.536,3.143L289.884,329.08c-12.6,7.274-18.317,24.439-12.757,38.411L410.46,704.821c4.184,10.512,13.611,16.164,23.399,15.181l10.43-1.05Z" fill="#1e266d"/><path d="M300.317,328.03l119.421-68.899c12.63-7.292,27.335-1.918,32.898,12.053L586,608.497c5.545,13.932-.188,31.156-12.79,38.43l-119.419,68.9c-12.6,7.274-27.352,1.876-32.898-12.054L287.562,366.441c-5.565-13.969.155-31.137,12.755-38.411Z" fill="#1e266d"/><path d="M581.419,610.306L448.061,273.004c-2.996-7.529-9.357-12.206-16.599-12.206-3.165,0-6.281.873-9.267,2.597l-17.943,10.352c-1.434.828-2.46,2.208-2.839,3.819l-3.4,14.444c-.367,1.561-1.364,2.903-2.754,3.706l-52.767,30.466c-1.339.774-2.951.913-4.403.382l-13.149-4.8c-1.519-.553-3.208-.409-4.609.402l-17.552,10.125c-10.544,6.085-15.319,20.588-10.642,32.34l59.814,151.331l73.512,185.986c2.994,7.523,9.367,12.193,16.634,12.193c3.163,0,6.266-.87,9.232-2.579l119.419-68.895c10.562-6.101,15.351-20.614,10.671-32.361Z" fill="url(#e132czElxi711-fill)"/><path d="M439.612,718.826c0,0-.551-.102-1.621-.304-1.045-.255-2.607-.667-4.493-1.562-3.742-1.651-9.01-5.608-11.939-12.874-5.769-14.648-14.009-35.575-23.897-60.685-19.785-50.23-46.162-117.201-72.539-184.177-6.653-16.721-13.304-33.442-19.852-49.901-3.273-8.23-6.52-16.394-9.728-24.462-1.604-4.033-3.201-8.042-4.782-12.021-1.502-3.989-3.43-7.902-4.186-11.906-1.529-8.145.279-16.684,4.602-23.387c2.183-3.337,4.997-6.211,8.26-8.331c3.312-2.083,6.79-3.982,10.105-5.942c13.378-7.756,26.028-15.092,37.702-21.862c23.352-13.541,42.812-24.824,56.432-32.724c6.81-3.949,12.161-7.052,15.81-9.167c1.799-1.085,3.273-1.732,4.286-2.113c1.02-.372,1.544-.564,1.544-.564.04-.017.068-.06.058-.105-.01-.05-.058-.08-.108-.07c0,0-2.29.365-5.989,2.485-3.657,2.1-9.023,5.179-15.85,9.098-13.658,7.837-33.165,19.035-56.577,32.474-11.704,6.717-24.384,13.996-37.797,21.695-3.348,1.958-6.765,3.801-10.178,5.924-3.4,2.19-6.333,5.161-8.606,8.606-4.503,6.918-6.418,15.726-4.867,24.205.821,4.323,2.709,8.12,4.196,12.143c1.567,3.987,3.143,8.003,4.73,12.044c3.173,8.08,6.386,16.259,9.621,24.504c6.476,16.486,13.054,33.237,19.632,49.988c26.54,66.909,53.079,133.817,72.986,184c9.97,25.09,18.277,45.994,24.094,60.632c3.206,7.449,8.741,11.398,12.615,12.999c1.981.809,3.587,1.138,4.67,1.332c1.083.143,1.639.215,1.639.215.05.005.095-.03.105-.077.01-.048-.028-.1-.078-.11Z" opacity="0.5" fill="#1e266d"/><path d="M382.585,291.095c-.544-1.344-1.846-1.933-2.932-1.304l-28.362,16.374c-1.063.613-1.482,2.195-.936,3.54.544,1.342,1.844,1.933,2.906,1.319l28.363-16.374c1.085-.629,1.504-2.213.961-3.555Z" fill="#1e266d"/><path d="M344.316,313.964c-.881-2.173-2.959-3.116-4.678-2.125-1.688.975-2.357,3.505-1.476,5.677.865,2.136,2.943,3.079,4.632,2.106c1.716-.993,2.385-3.523,1.522-5.658Z" fill="#1e266d"/><path d="M343.059,314.639c-.686-1.696-2.31-2.432-3.649-1.659-1.317.761-1.841,2.736-1.153,4.433.676,1.666,2.298,2.405,3.617,1.644c1.34-.774,1.861-2.749,1.185-4.418Z" opacity="0.1" fill="#cfd5d5"/><path d="M342.161,315.152c-.432-1.063-1.447-1.524-2.288-1.04-.826.476-1.152,1.714-.723,2.774.421,1.043,1.439,1.507,2.265,1.03.84-.484,1.167-1.721.746-2.764Z" opacity="0.1" fill="#cfd5d5"/><path d="M341.168,315.716c-.147-.364-.494-.521-.781-.357-.284.162-.397.586-.25.951.145.359.494.516.776.351.29-.162.402-.586.255-.945Z" opacity="0.2" fill="#cfd5d5"/><g><path d="M325.666,473.584l-11.223-28.45c-.035-.087-.073-.177-.11-.262-.352-.793-.818-1.517-1.347-2.118-.476-.544-1.003-.988-1.534-1.294-.599-.345-1.202-.519-1.756-.464-.257.029-.487.104-.689.222l-1.858,1.08c.202-.118.431-.195.688-.225.552-.052,1.155.12,1.754.464.531.307,1.058.751,1.537,1.295.526.601.995,1.322,1.347,2.118.037.087.074.174.109.264l11.223,28.448c.829,2.065.574,3.896-.504,4.522l1.859-1.08c1.08-.623,1.332-2.457.504-4.52Z" fill="#1e266d"/><path d="M323.81,474.665l-11.223-28.447c-.653-1.632-1.808-2.994-2.993-3.677-.599-.345-1.202-.517-1.754-.464-1.644.189-2.187,2.285-1.202,4.739l11.223,28.448c.653,1.631,1.808,2.993,2.991,3.677.599.344,1.202.519,1.756.464c1.641-.157,2.185-2.283,1.202-4.74Z" fill="#1e266d"/><path d="M311.13,443.834l1.859-1.081c.526.602.995,1.323,1.347,2.118l-1.859,1.08c-.351-.795-.818-1.516-1.347-2.117Z" fill="#1e266d"/><path d="M308.339,429.72l-11.251-28.465c-.04-.105-.084-.21-.129-.314-.342-.774-.799-1.48-1.315-2.066-.471-.536-.993-.975-1.519-1.279-.596-.345-1.203-.519-1.754-.464-.257.029-.484.104-.683.222l-1.859,1.08c.2-.118.429-.192.684-.222.551-.053,1.157.119,1.753.464.527.304,1.048.743,1.522,1.282.516.586.973,1.292,1.315,2.065.045.103.089.207.129.312L306.483,430.8c.826,2.061.556,3.877-.522,4.503l1.859-1.08c1.075-.626,1.344-2.442.519-4.503Z" fill="#1e266d"/><path d="M306.48,430.801l-11.25-28.465c-.634-1.621-1.784-2.978-2.966-3.659-.597-.345-1.2-.517-1.754-.464-1.644.192-2.188,2.317-1.232,4.724l11.25,28.466c.654,1.631,1.796,3,2.971,3.676.594.345,1.195.512,1.746.447c1.649-.157,2.22-2.268,1.235-4.725Z" fill="#1e266d"/><path d="M293.788,399.957l1.858-1.081c.516.589.973,1.293,1.315,2.066l-1.859,1.08c-.344-.776-.801-1.479-1.314-2.065Z" fill="#1e266d"/></g><path d="M438.786,702.073L319.552,353.296l162.996-94.104L601.782,607.969Z" opacity="0.5" fill="#718dff"/><path d="M601.783,607.969L438.787,702.073L383.555,346.104L546.551,252Z" opacity="0.7" fill="#718dff"/><path d="M602.308,608.27L439.312,702.374v-347.462l162.996-94.107Z" transform="translate(.379589 0)" opacity="0.95" fill="#f8f6fa"/><path d="M602.308,281.661L439.312,375.765v-29.358l162.996-94.104Z" fill="#719dff"/><path d="M569.236,567.445c-3.787-2.2-9.025-1.888-14.8,1.445l-83.912,48.446c-11.465,6.621-20.767,22.695-20.729,35.904.017,6.546,2.34,11.156,6.074,13.328l3.368,1.956l113.362-99.123Z" fill="#e0dbe1"/><path d="M557.804,570.843c11.465-6.62,20.827-1.319,20.864,11.892.038,13.176-9.265,29.286-20.732,35.906l-83.911,48.447c-11.465,6.62-20.827,1.285-20.865-11.892-.037-13.211,9.262-29.286,20.73-35.906Z" fill="#719dff"/><path d="M495.25,631.383l9.541-5.508v2.275l-9.541,5.508Zm.913,10.784v-2.278l-7.449,4.301-4.902,2.829v2.277l4.902-2.831Zm-15.846,6.872l-12.213,7.052v2.278l12.213-7.052Zm6.312-10.402l5.128-2.961v-2.277l-8.833,5.098-14.745,8.514v2.278Zm-14.471-.678l12.021-6.943v-2.277l-12.021,6.942-3.892,2.248v2.275Zm24.005-13.858l3.864-2.232v-2.278l-5.104,2.946-7.247,4.184v2.277Zm20.984-14.393l-5.348,3.086v2.277l5.348-3.088Zm-8.841,5.104l-4.607,2.659v2.275l4.607-2.657Zm8.928,3.879l-8.783,5.071v2.278l8.783-5.072Zm-5.071,11.961l-12.213,7.052v2.278l12.213-7.055Zm27.008-22.351l5.129-2.961v-2.278l-8.833,5.099-14.743,8.514v2.278Zm-14.471-.679l12.024-6.942v-2.277L524.7,605.345l-3.891,2.248v2.275ZM546.737,594.9v-2.277l-6.516,3.762v2.277Z" fill="#fff"/><path d="M551.871,334.775c-3.786-2.2-9.025-1.888-14.8,1.445l-66.547,38.421c-11.465,6.62-20.767,22.695-20.729,35.906.017,6.546,2.34,11.156,6.074,13.326l3.368,1.956l96-89.098Z" fill="#e0dbe1"/><path d="M540.439,338.174c11.468-6.621,20.83-1.32,20.865,11.891.037,13.176-9.265,29.286-20.73,35.907l-66.549,38.421c-11.465,6.62-20.827,1.284-20.865-11.892-.037-13.211,9.262-29.286,20.73-35.906Z" fill="#719dff"/><path d="M482.373,396.124l22.418-12.942v2.275l-22.418,12.944Zm20.029-.252v-2.278l-11.879,6.858v2.277Zm-15.374,6.598l-18.926,10.929v2.277l18.926-10.928Zm-8.153-2.05v-2.278l-10.699,6.177v2.277Zm-6.717-5.154l12.021-6.942v-2.276l-12.021,6.94-3.892,2.248v2.277Zm24.005-13.86l3.864-2.232v-2.278l-5.104,2.949-7.247,4.183v2.275Zm20.984-14.393l-5.348,3.085v2.278l5.348-3.088Zm-8.841,5.106l-4.607,2.659v2.275l4.607-2.657Zm8.928,3.876l-8.783,5.072v2.277l8.783-5.071Zm21.937-10.387l5.129-2.961v-2.277l-8.833,5.098-14.743,8.514v2.278ZM524.7,364.93l12.024-6.943v-2.275l-12.024,6.94-3.891,2.248v2.277Zm15.521-11.236v2.275l5.508-3.18v-2.278Z" fill="#fff"/><g transform="translate(.000001-5.571951)"><g transform="translate(-87.796367 57.867416)"><path d="M629.472,468.18c-3.784-2.2-9.022-1.889-14.797,1.444L565.822,497.83c-11.468,6.62-20.767,22.695-20.733,35.906.02,6.546,2.34,11.156,6.077,13.326l3.368,1.958l78.306-78.882Z" fill="#e0dbe1"/></g><path d="M618.04,471.582c11.468-6.618,20.83-1.32,20.865,11.891.04,13.176-9.263,29.286-20.73,35.907l-48.853,28.205c-11.467,6.621-20.827,1.285-20.864-11.891-.038-13.209,9.264-29.284,20.732-35.904Z" transform="translate(-87.791 58.438888)" fill="#000080"/></g><path d="M612.712,508.572l10.44-6.027v-2.275l-10.44,6.027Zm-26.275-2.896l13.111-7.571l8.756-5.056v-2.278l-8.756,5.056-13.111,7.571Zm25.886-8.187l-12.024,6.942v2.278l12.024-6.943l10.819-6.246v-2.277Zm-21.867,12.625v2.277l6.346-3.664v-2.278Zm18.761-1.801l-5.715,3.3v2.277l5.715-3.3Zm13.944-26.118l-11.365,6.56v2.278l11.365-6.561Zm-36.692,30.219l-12.273,7.087v2.275l12.273-7.085Zm-3.397-7.072l-8.896,5.136v2.277l8.896-5.136Z" transform="translate(-96.1525 59.6395)" fill="#fff"/><g transform="translate(1.267109-8.884668)"><path d="M528.193,478.378c-3.787-2.201-9.025-1.889-14.8,1.444L470.524,504.57c-11.465,6.621-20.767,22.696-20.729,35.907.017,6.545,2.34,11.155,6.074,13.326l3.368,1.955l72.321-75.425Z" fill="#e0dbe1"/><path d="M516.761,481.777c11.467-6.621,20.83-1.32,20.864,11.891.038,13.176-9.264,29.286-20.729,35.906l-42.871,24.749c-11.465,6.62-20.827,1.285-20.865-11.889-.037-13.211,9.262-29.286,20.73-35.907Z" transform="translate(0-1.381954)" fill="#719dff"/></g><path d="M496.515,516.531l-11.43,6.601v2.277l11.43-6.6Zm1.439,8.202l-11.285,6.516v2.277l11.285-6.515Zm-34.392,4.066l4.772-2.754l14.067-8.122v-2.277l-12.922,7.461-5.919,3.417v2.275Zm19.61,4.468l-14.511,8.377-5.159,2.978v2.278l6.935-4.004l12.732-7.352v-2.277Zm-19.647,4.587l8.476-4.894l9.587-5.535v-2.275l-13.825,7.982-4.238,2.447Zm34.724-31.356l-4.184,2.415-.923.531-7.244,4.183v2.278l7.244-4.183.923-.532l4.184-2.414Zm3.193.432l4.605-2.657v-2.278l-4.605,2.657Zm8.1-4.678l8.272-4.774v-2.278l-8.272,4.777Zm-2.52,10.487l10.831-6.251v-2.278l-10.831,6.254Zm-3.497-.257l-4.388,2.535v2.275l4.388-2.535Zm1.564,8.133l-4.418,2.549v2.278l4.418-2.55Z" fill="#fff"/><path d="M629.472,360.051c-3.784-2.197-9.022-1.888-14.797,1.447l-88.711,51.216c-11.468,6.62-20.767,22.695-20.732,35.906.02,6.546,2.34,11.156,6.076,13.326l3.368,1.956L632.838,362.01Z" transform="translate(-54.17 20.938991)" fill="#e0dbe1"/><path d="M618.04,363.455c11.468-6.62,20.83-1.319,20.865,11.892.04,13.176-9.262,29.286-20.73,35.906l-88.711,51.216c-11.465,6.62-20.827,1.284-20.864-11.892-.038-13.211,9.265-29.286,20.732-35.906Z" transform="translate(-52.9425 22.183825)" fill="#000080"/><path d="M596.378,390.308l-5.104,2.946v2.277l3.864-2.232l8.486-4.899v-2.278Zm10.744-3.927l12.021-6.942l3.894-2.247v-2.278l-3.894,2.248-12.021,6.942Zm4.752,6.289l11.25-6.496v-2.277l-11.25,6.496Zm-15.823,6.86l-9.539,5.508v2.275l8.626-4.981l13.241-7.644v-2.277Zm-27.827,16.008l-11.43,6.6v2.275l11.43-6.598Zm-20.318,2.696L542.8,421.18v2.278l5.106-2.946l7.244-4.184v-2.277Zm22.955-13.253l-12.213,7.052v2.277l12.213-7.052Zm17.751,10.14l11.285-6.518v-2.275l-11.285,6.516Zm14.78-8.534l12.732-7.351l6.935-4.004v-2.277l-5.158,2.978-14.509,8.377Zm-20.664.621l-10.832,6.254v2.278l10.832-6.254Zm-1.255,12.034l4.418-2.549v-2.275l-4.418,2.549Zm-49.624,8.262l-9.746,5.628v2.277l9.746-5.627Zm7.247-4.181l-3.752,2.165v2.278l3.752-2.165Zm48.281-27.819l-4.605,2.657v2.277l4.605-2.656Zm-8.102,6.952v-2.277l-5.348,3.088v2.275Z" transform="translate(-54.7605 25.535)" fill="#fff"/></g><path d="M679.515,660.158L593,610.207l86.515-49.955l86.523,49.955Z" fill="#719dff"/><path d="M679.515,751.653L593,701.699v-91.495l86.515,49.951Z" fill="#006da2"/><path d="M766.038,701.699l-86.522,49.954v-91.498l86.522-49.951Z" fill="#4e85e5"/><path d="M739,717.075c-.981-2.26-1.899-4.537-2.501-6.919-1.144-4.489-1.171-9.175-1.445-13.804-.359-6.06-1.15-12.087-2.064-18.086-1.665-10.896-3.773-21.813-7.844-32.054-4.075-10.244-10.234-19.851-18.901-26.641-3.827-2.996-8.071-5.398-12.335-7.726-5.14-2.807-10.325-5.514-15.563-8.131-4.545-2.27-9.188-4.492-14.166-5.507-5.161-1.055-6.958,2.039-11.536,6.705-6.667,6.794-3.171,14.228,2.368,18.032c21.151,14.52,46.051,23.15,47.066,24.395c1.144,1.401,7.324,61.548,8.938,85.335.142.092.311.221.464.326Z" opacity="0.3" fill="#006da2"/><path d="M697.016,491.315c3.006,14.6,26.533,36.768,32.811,42.193.866.747,1.943,1.151,3.088,1.144c7.765-.047,36.17-.258,42.016-.635c6.953-.448,7.028-11.828,1.861-12.687-9.351-1.556-31.309-2.062-36.425-2.15-.56-.007-1.053-.299-1.331-.785-2.161-3.777-11.726-20.449-16.903-28.364-2.235-3.417-6.485-10.782-10.289-12.256-8.16-3.166-16.601,4.925-14.828,13.54Z" fill="#e75755"/><path d="M746.22,597.021c-9.352-4.637-15.575-8.034-25.202-13.078-4.453-2.334-10.211-4.63-11.621-9.454l-59.187,9.702c-2.133,8.173-2.802,17.008.054,24.957c3.856,10.724,12.776,14.674,22.729,20.225c7.201,4.015,24.926,13.278,34.258,17.742c4.015,1.919,11.627-.085,15.585-2.116c11.199-5.741,17.599-8.86,24.416-16.55c3.825-4.314,5.693-8.312,6.818-13.992c1.314-6.644.282-13.401-7.85-17.436Z" fill="#1e266d"/><path d="M702.318,478.713c6.852-3.665,12.443,1.202,15.653,8.716c1.889,4.416,1.253,9.464.38,14.189-.873,4.722-1.946,9.593-.852,14.27.791,3.37,2.673,6.427,3.301,9.831.687,3.747-.275,7.769-2.585,10.799-1.477,1.936-3.441,3.448-5.013,5.309-4.603,5.449-5.327,13.261-4.192,20.303c1.131,7.042,1.583,9.596,2.395,12.881c2.615,10.575-17.776,19.719-29.241,20.511-15.293,1.056-30.911-3.03-32.939-9.359.482-6.77,3.61-11.722,9.307-20.785c7.748-12.328,10.486-20.154,8.492-30.671-.917-4.823-3.237-9.263-5.798-13.452-1.203-1.966-2.266-4.765-2.894-7.598-.972-4.399.716-9.006,4.331-11.692c5.34-3.975,13.883-8.218,17.742-10.453c8.753-5.071,13.764-8.441,21.913-12.799Z" fill="#e75755"/><path d="M683.225,505.117c4.796,7.106,13.268,10.16,18.921,6.824c5.649-3.336,6.341-11.804,1.542-18.907-3.146-4.657-7.861-7.524-12.334-8.044-2.585,1.556-5.232,3.166-8.319,4.987-1.6.944-2.789,2.554-2.932,4.406-.258,3.386.747,7.218,3.122,10.734Z" fill="#fbbd9e"/><path d="M681.058,472.121c2.992,1.389,6.066,1.902,8.662.547l13.991-16.346c-6.202-25.62-33.585-15.789-32.532,2.004.357,6.026,4.396,11.254,9.879,13.795Z" fill="#1e266d"/><path d="M685.786,480.16c3.533,3.485,14.288,13.927,14.403,14.073c2.84,3.513,3.353,8.099,1.95,11.217-1.26,2.792-4.749,3.791-7.534,2.51-4.144-1.902-8.554-5.914-9.865-7.789-1.627-2.333-3.152-6.022-2.513-8.988.05-.245.163-.462.295-.669.476-.737,1.661-2.881,2.334-6.76.302-1.749.482-1.777.93-3.594Z" fill="#f2a883"/><path d="M681.778,462.393c-.347,1.875-1.77,13.57,2.035,22.749c5.319,12.854,17.147,16.862,18.927,17.361c2.657.748,5.045-1.25,6.166-3.434c5.316-10.364,11.471-27.406,6.851-35.287-4.025-6.862-7.962-10.741-13.492-12.653-4.848-1.678-18.462.305-20.487,11.264Z" fill="#fbbd9e"/><path d="M717.2,459.603c-.921-1.766-7.001-10.452-16.098-12.28-7.656-1.539-12.415,1.213-15.048,3.003-2.595,1.763-4.426,4.498-5.493,7.443-1.066,2.945-1.416,6.107-1.474,9.243-.058,3.087.17,6.216,1.148,9.144c1.135,3.4,2.606,6.97,4.236,10.469.459-1.165.146-2.982.312-4.225.167-1.24.262-3.523,2.011-3.92c3.706-.846,3.499,5.784,4.022,7.68.129.462.316.924.663,1.25.353.326.897.479,1.321.258.292-.153.483-.448.639-.737c1.09-2.014,1.878-4.148,2.924-6.182c5.191-10.069,21.02-13.184,21.034-8.938c2.106-4.996,1.447-9.062-.197-12.208Z" fill="#1e266d"/><path d="M711.093,647.081c12.732.768,29.954-13.292,32.756-16.023c5.163-5.038,10.575-11.624,10.986-18.826.193-3.4-.843-6.403-2.599-9.321-.917-1.525-3.502-4.293-7.84-2.856-1.844.611-3.427,1.868-4.647,3.376-4.525,5.585-6.688,9.736-6.464,14.518.224,4.868,2.446,10.082.217,11.366-.815.473-3.784-2.49-6.644-4.84-3.825-3.149-7.147-8.975-12.99-7.636-3.876,1.878-7.877,5.88-9.63,9.711-1.199,2.623-1.698,6.706-1.202,10.748.692,5.602,2.571,9.45,8.057,9.783Z" fill="#1e266d"/><path d="M743.808,691.919c-8.502,2.738-6.253,11.057-6.583,14.043-.316,2.836-1.117,7.181-1.99,9.549-.602,1.627,3.695,3.515,4.32,1.396l.517-1.936c2.901,6.872,5.673,12.459,8.044,15.924c1.698,2.477,4.344,4.141,7.32,4.525c2.843.367,5.737.122,7.49-.89c3.607-2.079-4.688-16.061-5.826-19.451-1.073-3.203-4.297.32-4.98-8.91-.75-10.204-1.318-15.109-8.312-14.25Z" fill="#1e266d"/><path d="M766.999,611.678c-1.094-1.668-12.728-9.409-18.53-12.181-4.148-1.984-17.949,6.655-14.79,21.805l12.144,6.885c-4.566,8-4.848,18.177-3.73,29.264c1.107,11.034,2.486,16.717,2.728,26.829.071,2.955-.534,5.945-1.998,8.513-.292.513-.601.971-.92,1.318-.337.36-.636.72-.836,1.036-1.145,1.78-.805,4.154.041,6.09c2.004,4.593,5.649,14.227,7.531,16.778c2.034,2.758,7.816,2.863,9.127.166.173-.357.143-.785.048-1.172-.979-3.92-3.951-7.592-4.379-11.93-.472-4.759.951-11.451,1.75-16.132c5.204-30.606,8.125-44.964,9.803-53.348.537-2.69,1.23-4.721,2.459-8.118c1.753-4.888,2.667-11.057-.448-15.803Z" fill="#fbbd9e"/><path d="M730.495,711.826c-7.331,5.102-2.752,12.402-2.195,15.353.527,2.806,1.706,7.861,1.818,10.616.071,1.736,3.971,1.763,3.947.204l-.01-2.416c10.686,14.801,17.908,15.99,20.867,15.49c2.826-.479,5.506-1.576,6.906-3.04c2.486-2.602-10.048-15.398-12.127-18.309-1.964-2.752-3.744,1.922-7.09-6.702-3.702-9.535-5.679-14.063-12.116-11.196Z" fill="#1e266d"/><path d="M751.216,731.733c-2.082-3.465-5.564-6.359-7.242-10.381-1.841-4.416-2.626-9.019-2.888-13.761-1.579-28.945-2.605-48.827-3.604-57.316-.176-1.504-.363-3.016-.326-4.531.034-1.321.238-2.633.306-3.951.255-5.193-.669-11.359-5.034-14.99-1.886-1.563-13.649-10.014-15.674-11.02-4.864-.727-17.843,9.831-12.877,25.528l13.217,7.229c-2.547,11.675.642,21.05,3.944,33.401c3.074,11.492,6.974,13.119,9.267,25.681.424,2.32.034,4.728-.996,6.851-.214.445-.39.877-.496,1.237-.574,2.038,1.196,4.239,2.412,5.975c3.468,4.942,8.635,11.566,11.179,13.455c2.752,2.045,8.645.683,9.107-2.283.062-.384-.095-.785-.295-1.124Z" fill="#fbbd9e"/><path d="M717.07,583.655c-6.882-7.99-29.651-30.151-29.651-30.151s-4.324-25.072-6.376-35.582c-.781-4.005-1.946-12.429-4.915-15.228-6.369-6.006-17.236-1.689-18.839,6.956-3.02,16.282,13.071,51.358,14.871,53.372c5.958,6.672,29.971,25.26,35.362,29.19c5.628,4.107,12.969-4.589,9.548-8.557Z" fill="url(#e132czElxi764-fill)"/><path d="M741.726,580.172L683.68,613.906l38.52,22.756l56.79-34.974Z" fill="#d2ceca"/><path d="M736.877,599.185L721.5,608.064l-9.984-5.757l15.381-8.897l9.98,5.758Z" opacity="0.1" fill="#bcb9b5"/><path d="M726.908,593.41l-15.392,8.88.303.19l15.078-8.706l9.682,5.584.298-.173Z" fill="#bcb9b5"/><path d="M718.589,616.665l2.334,1.321c.177.099.282.268.285.445.004.187-.098.357-.281.462l-2.749,1.546-2.33-1.322c-.176-.098-.282-.265-.289-.445-.003-.187.102-.356.282-.462Zm9.454-5.52c-.183.105-.285.275-.282.462.003.18.109.346.285.445l2.334,1.321l2.748-1.545c.18-.102.285-.276.282-.462-.007-.18-.112-.35-.289-.445l-2.333-1.322Zm-8.808,12.986l2.748-1.545c.18-.102.285-.276.282-.462-.007-.181-.112-.347-.289-.446l-2.333-1.321-2.745,1.546c-.184.102-.289.275-.282.462.003.18.109.346.285.445Zm.676-8.275c-.184.102-.285.275-.282.462.003.18.109.347.285.445l2.334,1.322l2.748-1.546c.18-.102.285-.275.282-.462-.007-.183-.112-.35-.292-.448l-2.33-1.318Zm4.063-2.354c-.18.102-.286.275-.282.462.006.18.112.347.288.445l2.331,1.322l2.748-1.546c.183-.105.285-.279.282-.462-.004-.18-.112-.346-.289-.445l-2.33-1.321Zm-12.195,7.062c-.184.102-.286.276-.282.462.003.18.108.347.285.445l2.334,1.322l2.748-1.546c.18-.102.285-.275.282-.462-.004-.177-.112-.346-.289-.445l-2.334-1.321Zm9.919,6.529l2.744-1.545c.184-.106.286-.276.282-.462-.003-.18-.112-.35-.289-.445l-2.33-1.322-2.744,1.546c-.184.105-.286.275-.282.462.003.183.112.35.288.445Zm14.939-8.608c.184-.101.289-.275.282-.462-.003-.18-.109-.346-.289-.445l-2.33-1.321-2.745,1.549c-.18.099-.285.272-.282.459.007.183.112.35.289.448l2.33,1.321Zm4.066-2.354c.18-.102.286-.275.282-.462-.003-.18-.112-.349-.289-.445l-2.33-1.321-2.745,1.546c-.183.098-.285.271-.281.462.003.18.112.349.288.445l2.331,1.321Zm-12.195,7.063c.18-.099.286-.272.279-.462-.003-.18-.109-.347-.285-.445l-2.334-1.322-2.745,1.546c-.18.102-.285.275-.282.458.007.18.112.35.289.449l2.33,1.321Zm4.066-2.355c.184-.101.286-.275.282-.462-.003-.18-.112-.346-.285-.444l-2.334-1.322-2.744,1.546c-.184.102-.286.275-.282.462.003.18.108.346.285.445l2.334,1.321Zm-.468-12.048c-.18.102-.286.275-.282.462.007.18.112.346.288.445l2.331,1.321l2.748-1.545c.183-.102.289-.276.282-.459-.004-.184-.112-.35-.289-.449l-2.334-1.321Zm-11.142,10.758c-.18.102-.285.275-.282.462.007.18.112.349.289.445l2.33,1.321l2.748-1.546c.183-.105.285-.275.282-.462-.003-.18-.109-.349-.285-.448L723.709,618Zm23.802-5.772c.183-.102.289-.275.282-.462-.004-.18-.109-.346-.289-.445l-2.33-1.321-2.745,1.546c-.18.105-.285.275-.282.462.007.18.112.346.286.445l2.333,1.321Zm6.838-7.286c.003.18.109.35.289.445l2.33,1.321l4.056-2.306c.18-.099.282-.272.278-.459-.003-.18-.108-.346-.285-.445l-2.334-1.321-4.056,2.306c-.18.099-.285.272-.278.459Zm-13.364,6.678c.18-.105.286-.278.279-.462-.003-.176-.109-.346-.285-.445l-2.334-1.321-2.748,1.546c-.18.101-.285.275-.279.462.004.18.109.346.286.444l2.333,1.322Zm-8.132,4.708c.184-.101.289-.275.282-.462-.003-.183-.108-.349-.285-.445l-2.334-1.321-2.744,1.546c-.184.105-.289.275-.282.462.003.18.108.346.285.445l2.334,1.321Zm4.066-2.354c.184-.102.286-.275.282-.462-.003-.18-.112-.346-.285-.445l-2.337-1.321-2.745,1.546c-.183.101-.285.275-.282.462.004.18.112.346.286.445l2.333,1.321Zm12.195-7.065c.184-.102.289-.272.282-.462-.003-.18-.109-.347-.285-.445l-2.334-1.322-2.748,1.546c-.18.102-.285.275-.278.462.003.18.108.347.285.445l2.33,1.321Zm-10.197-2.021c-.184.102-.286.275-.282.462.003.183.112.35.292.448l2.327,1.321l2.748-1.545c.18-.102.285-.275.278-.466-.003-.176-.108-.346-.288-.441l-2.331-1.322Zm6.807-3.9l-2.745,1.546c-.18.105-.285.275-.282.462.004.183.113.349.289.445l2.331,1.321l2.748-1.546c.183-.101.285-.275.282-.462-.004-.18-.113-.349-.289-.445Zm7.456,3.567c.18-.102.286-.275.282-.462-.007-.18-.112-.35-.288-.445l-2.334-1.322-2.745,1.546c-.183.102-.285.275-.282.462.004.18.112.346.286.445l2.333,1.321Zm-8.128,4.708c.183-.102.285-.275.281-.462-.006-.18-.112-.35-.288-.445l-2.334-1.322-2.745,1.55c-.183.101-.285.275-.282.458.004.184.113.35.289.445l2.33,1.321Zm-21.649,16.631c-.003-.18-.109-.346-.285-.445l-2.33-1.321-2.748,1.545c-.181.099-.286.272-.279.462.003.18.109.347.285.445l2.331,1.322l2.748-1.546c.176-.102.285-.275.278-.462Zm-2.463-2.965c-.003-.18-.112-.347-.285-.445l-2.337-1.322-4.056,2.307c-.18.102-.285.275-.278.462.003.18.108.346.285.445l2.337,1.321l4.056-2.306c.176-.099.282-.272.278-.462Zm-5.119-1.335c-.003-.18-.108-.347-.285-.445l-2.334-1.322-2.748,1.546c-.18.105-.285.275-.278.462.003.18.108.346.285.445l2.33,1.321l2.748-1.545c.184-.106.286-.279.282-.462Zm-2.462-2.966c-.004-.18-.113-.35-.289-.445l-2.334-1.321-4.052,2.306c-.18.102-.286.275-.279.459.003.183.109.35.285.445l2.331,1.321l4.059-2.306c.177-.099.282-.272.279-.459Zm12.554,6.814l-4.055,2.307c-.18.102-.286.275-.282.458.003.18.112.347.285.445l2.334,1.322l4.055-2.307c.184-.102.286-.275.282-.458-.003-.184-.112-.35-.288-.445Zm38.891-19.855l-2.33-1.321-2.748,1.546c-.18.102-.285.275-.278.458.003.18.108.35.285.449l2.33,1.321l2.748-1.546c.184-.105.286-.275.282-.462-.003-.183-.112-.346-.289-.445Zm-18.533,8.105l-19.057,10.996c-.18.102-.281.275-.278.459.003.18.112.35.289.445l2.333,1.321l19.054-10.996c.18-.102.281-.271.278-.458-.003-.18-.109-.35-.289-.449Zm12.14-7.072l-2.748,1.546c-.183.102-.285.275-.282.462.004.18.109.346.286.445l2.333,1.321l2.749-1.546c.18-.098.285-.271.281-.462-.003-.18-.112-.349-.288-.445ZM711.65,619.831l2.748-1.549c.18-.099.285-.272.282-.462-.007-.18-.112-.347-.289-.445l-2.334-1.322-2.744,1.546c-.184.102-.286.275-.282.462.003.18.108.346.285.445Zm35.888-6.954l-2.748,1.546c-.18.098-.286.271-.282.462.003.18.112.346.285.445l2.334,1.321l2.748-1.545c.183-.102.285-.276.282-.459-.004-.18-.112-.35-.286-.448Zm4.062-2.354l-2.748,1.546c-.18.105-.285.275-.278.462.003.18.109.35.289.445l2.326,1.321l2.748-1.546c.184-.101.286-.275.282-.461-.003-.184-.108-.35-.288-.445Zm-2.765.9c.184-.102.286-.275.282-.462-.006-.18-.112-.35-.288-.445l-2.331-1.321-2.744,1.546c-.184.101-.289.275-.282.461.003.184.108.35.288.446l2.331,1.321Zm-4.813-9.236c.003.184.109.35.289.445l2.33,1.322l4.056-2.307c.18-.102.285-.275.278-.459-.003-.183-.108-.349-.288-.445l-2.331-1.321-4.056,2.307c-.18.102-.285.275-.278.458Zm.149-1.196l2.749-1.545c.183-.099.288-.272.281-.462-.003-.18-.108-.347-.288-.445l-2.331-1.321-2.748,1.545c-.18.102-.285.275-.278.462.003.18.108.35.289.445Zm8.727,8.078c.183-.102.285-.275.282-.462-.003-.183-.112-.35-.289-.445l-2.33-1.321-2.745,1.545c-.18.102-.285.276-.282.462.004.181.112.35.289.445l2.33,1.322Zm-3.76-5.543c.003.183.108.349.285.445l2.33,1.321l2.748-1.546c.184-.105.286-.278.279-.462-.003-.176-.109-.346-.285-.445l-2.331-1.321-2.748,1.546c-.176.105-.282.278-.278.462Zm-9.033-.177l2.748-1.546c.18-.102.286-.275.282-.462-.003-.18-.112-.35-.288-.445l-2.334-1.321-2.745,1.549c-.18.098-.285.272-.282.458.004.184.112.35.289.446Zm-8.128,4.708l2.748-1.546c.183-.105.285-.278.282-.462-.004-.18-.112-.346-.289-.445l-2.334-1.321-2.744,1.546c-.18.102-.286.275-.282.462.003.18.112.346.285.445Zm-8.133,4.708l2.749-1.546c.183-.105.285-.275.281-.461-.003-.184-.112-.35-.288-.445l-2.334-1.322-2.745,1.546c-.183.105-.285.275-.282.462.007.18.113.35.289.445Zm-4.062,2.354l2.748-1.545c.18-.102.285-.276.278-.462-.003-.18-.108-.347-.282-.445l-2.337-1.322-2.744,1.546c-.184.098-.286.272-.282.462.003.18.108.346.285.445Zm16.257-9.416l2.748-1.546c.184-.102.289-.275.282-.462-.003-.183-.108-.349-.288-.445l-2.331-1.321-2.744,1.546c-.184.101-.289.275-.282.462.003.18.108.346.285.445Zm-20.323,11.774l2.748-1.546c.183-.102.285-.275.282-.462-.004-.18-.109-.347-.286-.445l-2.337-1.321-2.744,1.545c-.18.102-.286.279-.282.462.003.177.112.347.288.445Zm12.195-7.066l2.744-1.546c.184-.098.289-.271.282-.462-.003-.18-.109-.346-.285-.444l-2.334-1.322-2.744,1.546c-.184.105-.289.275-.282.462.003.18.108.346.285.445Z" fill="#1e266d"/><path d="M811.481,526.959c-.282-.292-.713-.373-1.111-.438-4.083-.659-8.179-1.219-12.286-1.688-4.202-.941-7.63-2.782-5.333-4.042c2.771-.86,5.825-1.6,6.664-2.738.459-.619.554-1.563.024-2.117-.666-.696-1.814-.421-2.714-.078-3.954,1.492-6.6,1.165-8,1.879-7.429,4.29-6.61,4.684-11.281,4.589-3.821-.248-4.158,10.897-1.179,10.897c3.431-.217,4.885.591,6.767,1.682c2.052,1.185,6.05,2.727,10.649,5.54c1.882,1.152,4.267-.764,2.303-2.089-.166-.112-3.648-1.991-3.757-2.194c1.543.156,7.891,2.157,9.131,2.483c1.468.387,2.385-1.706,1.502-2.232-.829-.496-6.159-2.816-7.022-3.309c3.594-.468,7.198.656,10.823.727.537.01,1.097-.01,1.566-.268.472-.255.815-.822.649-1.332-.184-.567-.846-.791-1.424-.93-2.673-.629-5.309-1.006-8.325-1.383-2.14-.272-2.348-1.899-.014-1.756c3.186.197,6.359.496,9.521.907.778.098,1.614.197,2.307-.163.689-.36,1.084-1.383.54-1.947Z" fill="#fbbd9e"/><path d="M732.136,590.06c-2.32-4.243-10.061-4.246-15.378-5.941-3.93-2.344-9.521,5.815-7.35,7.745.747.761,1.341,1.399,2.275,1.926.901.502,1.831.937,2.762,1.379c1.77.846,3.404,1.814,4.657,3.356.323.394.619.812.887,1.24c1.111,1.763.975,5.014,2.816,6.233c1.382.917,1.685.044,3.05-.177c1.121-.18,4.596.493,5.408-.047.404-.268.55-.792.897-1.131c1.488-1.461,2.48-1.644,2.751-4.026.211-1.83.075-4.351-.788-6.005-.808-1.519-1.195-3.102-1.987-4.552Z" fill="#fbbd9e"/><path d="M733.346,598.607l-10.375,39.737l57.907-33.653l10.514-39.819Z" fill="#bcb9b5"/><path d="M732.691,597.96l58.049-33.738.652.653-58.046,33.734Z" fill="#d2ceca"/><path d="M732.69,597.958l-10.731,38.045-38.283-22.1.024,1.766l39.272,22.675l10.374-39.737Z" fill="#999693"/><path d="M679.382,358.644c-2.687-1.61-6.43-1.41-10.564.982-8.176,4.722-14.804,16.203-14.804,25.646c0,4.668,1.617,7.959,4.24,9.532l2.812,1.624l21.136-36.157Z" fill="#eae5eb"/><path d="M656.828,386.895c0,9.444,6.627,13.272,14.807,8.55c8.176-4.721,14.803-16.203,14.803-25.646c0-9.444-6.627-13.272-14.803-8.55-8.18,4.722-14.807,16.203-14.807,25.646Z" fill="#ed3e46"/><path d="M676.746,368.706c-.122.065-.244.133-.37.204-1.977,1.141-3.703,3.207-4.637,5.333-.934-1.046-2.656-1.121-4.633.021-.126.071-.251.149-.374.227-3.532,2.283-5.696,7.29-4.365,9.81c1.165,2.205,3.557,4.376,9.226,5.238.089.011.214-.061.299-.173c5.673-7.408,8.064-12.337,9.23-15.89c1.321-4.053-.84-6.567-4.376-4.77Z" fill="#f8f6fa"/><path d="M853.628,567.289c-4.362-2.612-10.439-2.286-17.161,1.593-13.279,7.667-24.047,26.316-24.047,41.649c0,7.575,2.626,12.929,6.885,15.476l4.573,2.64L858.2,569.928Z" fill="#eae5eb"/><path d="M816.992,613.175c0,15.337,10.768,21.55,24.047,13.884c13.282-7.667,24.046-26.316,24.046-41.653s-10.764-21.55-24.046-13.883c-13.279,7.67-24.047,26.316-24.047,41.652Z" fill="#ed3e46"/><path d="M849.347,583.641c-.2.102-.4.214-.604.33-3.21,1.851-6.013,5.204-7.531,8.662-1.522-1.702-4.318-1.821-7.531.034-.204.119-.404.241-.608.37-5.737,3.706-9.25,11.841-7.093,15.931c1.892,3.584,5.775,7.103,14.984,8.503.143.023.346-.092.489-.282c9.209-12.032,13.092-20.038,14.984-25.806c2.16-6.58-1.349-10.663-7.09-7.742Z" fill="#f8f6fa"/><g><path d="M872.952,459.252c-2.687-1.611-6.431-1.41-10.568.981-8.176,4.722-14.804,16.203-14.804,25.647c0,4.667,1.617,7.959,4.24,9.531l2.816,1.624l21.132-36.156Z" fill="#eae5eb"/></g><g transform="translate(.000001 0)"><path d="M850.389,487.501c0,9.443,6.631,13.272,14.807,8.55C873.373,491.329,880,479.848,880,470.405c0-9.444-6.627-13.272-14.804-8.55-8.176,4.721-14.807,16.203-14.807,25.646Z" transform="translate(-.1205 2.416089)" fill="#ffb92c"/><path d="M860.845,479.16c0,1.715-.995,3.682-2.221,4.392-1.23.706-2.225-.109-2.225-1.828c0-1.715.995-3.682,2.225-4.392c1.226-.71,2.221.109,2.221,1.828Z" transform="translate(0-.652682)" fill="#1e266d"/><path d="M873.995,471.569c0,1.719-.996,3.686-2.222,4.392-1.226.71-2.222-.108-2.222-1.827c0-1.716.996-3.682,2.222-4.392s2.222.108,2.222,1.827Z" transform="translate(0-.652682)" fill="#1e266d"/></g><path d="M871.895,482.188c-.333.516-.856,1.229-1.512,2.024-.659.788-1.464,1.665-2.377,2.463-.452.411-.934.778-1.427,1.135-.245.186-.489.343-.73.499-.248.153-.547.333-.778.462-1.03.618-2.025,1.043-2.935,1.291-.917.258-1.719.312-2.381.285-.653-.037-1.179-.149-1.509-.278-.339-.129-.533-.204-.533-.204s.116.18.381.421c.271.231.676.56,1.311.737.621.187,1.447.265,2.435.068.493-.095,1.019-.238,1.566-.465.544-.211,1.125-.517,1.668-.822.302-.177.537-.326.822-.507.289-.193.574-.387.846-.594.547-.404,1.073-.87,1.566-1.345.988-.941,1.814-1.977,2.439-2.881.632-.907,1.036-1.705,1.308-2.248.265-.551.38-.86.38-.86s-.2.299-.54.819Z" fill="#1e266d"/><path d="M756.408,260.871c-4.361-2.612-10.439-2.286-17.158,1.593-13.281,7.667-24.05,26.316-24.05,41.653c0,7.575,2.626,12.925,6.889,15.476l4.569,2.639L760.98,263.51Z" fill="#eae5eb"/><path d="M719.773,306.754c0,15.337,10.768,21.55,24.047,13.883c13.282-7.667,24.05-26.316,24.05-41.649c0-15.337-10.768-21.553-24.05-13.883-13.279,7.667-24.047,26.312-24.047,41.649Z" fill="#ffb92c"/><path d="M736.183,293.236c0,2.789-1.617,5.985-3.611,7.137-1.998,1.151-3.611-.177-3.611-2.966c0-2.788,1.617-5.985,3.611-7.136c1.994-1.152,3.611.176,3.611,2.965Z" fill="#1e266d"/><path d="M757.542,280.904c0,2.788-1.62,5.985-3.611,7.136-1.994,1.152-3.611-.176-3.611-2.965s1.621-5.985,3.611-7.137c1.994-1.152,3.611.177,3.611,2.966Z" fill="#1e266d"/><path d="M731.036,310.651c.757,5.085,5.346,6.118,12.188,2.259.006.014.244-.126.251-.129c6.841-4.059,11.43-10.395,12.188-16.349Z" fill="#fff"/><path d="M797.421,382.437c-4.362-2.612-10.439-2.286-17.161,1.593-13.278,7.667-24.047,26.32-24.047,41.653c0,7.575,2.626,12.929,6.886,15.476l4.572,2.64l34.322-58.719Z" fill="#eae5eb"/><path d="M760.786,428.324c0,15.333,10.768,21.549,24.047,13.883c13.281-7.667,24.046-26.316,24.046-41.653s-10.765-21.55-24.046-13.883c-13.279,7.67-24.047,26.316-24.047,41.653Z" fill="#719dff"/><path d="M792.967,398.002c-.2.102-.401.211-.605.33-3.21,1.855-6.009,5.204-7.531,8.662-1.518-1.702-4.317-1.821-7.53.031-.204.119-.405.241-.605.37-5.741,3.706-9.253,11.845-7.093,15.931c1.892,3.584,5.775,7.103,14.984,8.503.143.02.343-.095.489-.282c9.209-12.032,13.092-20.039,14.984-25.806c2.157-6.577-1.352-10.66-7.093-7.739Z" fill="#f8f6fa"/></svg>